<svg width="64" height="64" viewBox="0 0 64 64" fill="none" xmlns="http://www.w3.org/2000/svg">
<circle cx="32" cy="32" r="32" fill="#FEE500"/>
<path d="M32.0922 15.4443C22.1363 15.4443 14.1074 21.8674 14.1074 29.6651C14.1074 34.7265 17.4475 39.1585 22.4575 41.6892L20.7618 48.0225C20.7298 48.1174 20.7249 48.2193 20.7476 48.3168C20.7703 48.4144 20.8197 48.5037 20.8903 48.5748C20.9932 48.6656 21.1256 48.7158 21.2628 48.7161C21.3766 48.707 21.4845 48.662 21.5711 48.5877L28.8678 43.6676C29.9449 43.8162 31.0306 43.8934 32.1179 43.8987C42.0609 43.8987 50.1027 37.4756 50.1027 29.6651C50.1027 21.8546 42.0352 15.4443 32.0922 15.4443Z" fill="#392020"/>
<path d="M20.4015 27.4168H18.436C18.1924 27.4238 17.9518 27.3614 17.7423 27.2369C17.6493 27.1786 17.5693 27.1017 17.5074 27.0111C17.4455 26.9204 17.403 26.818 17.3826 26.7102C17.3764 26.6418 17.3764 26.5731 17.3826 26.5047C17.3765 26.3768 17.4013 26.2492 17.455 26.1329C17.5087 26.0166 17.5896 25.915 17.6909 25.8367C17.9149 25.6745 18.1852 25.5888 18.4617 25.5925H24.3838C24.6294 25.5839 24.8716 25.6512 25.0775 25.7853C25.1727 25.841 25.2544 25.9172 25.3166 26.0083C25.3788 26.0993 25.42 26.2031 25.4372 26.312C25.4435 26.3761 25.4435 26.4406 25.4372 26.5047C25.4433 26.6345 25.4185 26.7638 25.3649 26.8822C25.3113 27.0005 25.2304 27.1044 25.1289 27.1855C24.9104 27.3475 24.6427 27.4292 24.371 27.4168H22.4697V34.1739C22.4775 34.3179 22.4552 34.4618 22.4043 34.5967C22.3535 34.7316 22.2751 34.8545 22.1743 34.9575C22.0776 35.056 21.9613 35.1332 21.833 35.1841C21.7047 35.235 21.5671 35.2584 21.4292 35.253C21.1879 35.2598 20.9518 35.1827 20.7612 35.0347C20.5797 34.89 20.4566 34.6847 20.4143 34.4565C20.4016 34.3627 20.4016 34.2677 20.4143 34.1739L20.4015 27.4168Z" fill="#FEE500"/>
<path d="M26.0043 26.0935C26.0608 25.8821 26.1935 25.6991 26.3769 25.5797C26.5722 25.4689 26.7948 25.4155 27.0192 25.4255H27.5073C27.7454 25.417 27.9811 25.4748 28.1882 25.5925C28.4076 25.7401 28.5635 25.9648 28.625 26.222L31.1942 33.4801C31.2608 33.6695 31.3166 33.8626 31.3612 34.0583C31.3656 34.1396 31.3656 34.221 31.3612 34.3023C31.3656 34.4275 31.3425 34.5522 31.2937 34.6676C31.2449 34.7829 31.1715 34.8863 31.0786 34.9704C30.9886 35.0626 30.8805 35.1353 30.7612 35.1839C30.6418 35.2326 30.5137 35.256 30.3849 35.2529C30.1868 35.2726 29.9878 35.2251 29.82 35.1179C29.6522 35.0107 29.5254 34.8501 29.46 34.6621L28.9204 33.082H25.5418L25.0023 34.6621C24.9385 34.8538 24.8101 35.0175 24.6391 35.1253C24.4681 35.233 24.2651 35.2781 24.0645 35.2529C23.8473 35.2586 23.6345 35.1907 23.4607 35.0602C23.2914 34.9256 23.1772 34.7338 23.1396 34.5208C23.1328 34.4481 23.1328 34.375 23.1396 34.3023C23.1175 34.1748 23.1175 34.0446 23.1396 33.917C23.1396 33.7757 23.2295 33.6215 23.2809 33.4801L26.0043 26.0935ZM27.2889 27.7765L26.0685 31.6304H28.4965L27.2889 27.7765Z" fill="#FEE500"/>
<path d="M31.6554 26.5051C31.6424 26.2168 31.744 25.9351 31.938 25.7215C32.0367 25.622 32.1551 25.5442 32.2857 25.4933C32.4162 25.4424 32.556 25.4194 32.696 25.4259C32.9366 25.4231 33.1714 25.4999 33.364 25.6443C33.5424 25.795 33.6609 26.0046 33.698 26.2352C33.7106 26.3247 33.7106 26.4156 33.698 26.5051V33.2622H37.2307C37.4756 33.259 37.7163 33.3258 37.9244 33.4548C38.0179 33.5125 38.0983 33.5893 38.1603 33.68C38.2222 33.7707 38.2644 33.8734 38.2841 33.9815C38.2841 33.9815 38.2841 34.11 38.2841 34.1743C38.2902 34.3022 38.2654 34.4296 38.2117 34.5459C38.158 34.6622 38.0771 34.7639 37.9758 34.8423C37.7518 35.0045 37.4815 35.09 37.205 35.0863H32.863C32.5864 35.1041 32.3115 35.0321 32.0793 34.8809C31.8716 34.7256 31.7332 34.4949 31.694 34.2386C31.6845 34.0974 31.6845 33.9557 31.694 33.8145L31.6554 26.5051Z" fill="#FEE500"/>
<path d="M38.5153 26.5051C38.5076 26.2177 38.6085 25.9379 38.7979 25.7215C38.9905 25.5466 39.2374 25.4433 39.4972 25.4292C39.7569 25.4152 40.0136 25.4912 40.2239 25.6444C40.4062 25.7937 40.5292 26.0033 40.5707 26.2353C40.5771 26.3251 40.5771 26.4153 40.5707 26.5051V29.6524L43.8208 25.9012C43.946 25.7733 44.079 25.6533 44.2191 25.5417C44.351 25.4631 44.5023 25.4229 44.6558 25.4259C44.8804 25.4247 45.0999 25.492 45.2853 25.6187C45.3726 25.6775 45.4472 25.7534 45.5046 25.8417C45.562 25.9299 45.601 26.0288 45.6193 26.1325C45.6245 26.158 45.6245 26.1843 45.6193 26.2097C45.6131 26.2393 45.6131 26.2699 45.6193 26.2996C45.6189 26.4347 45.5835 26.5676 45.5165 26.685C45.4484 26.8094 45.3665 26.9256 45.2725 27.0317L43.14 29.3698L45.7092 33.3522V33.4806C45.8426 33.6647 45.9466 33.8685 46.0175 34.0845V34.1486C46.0324 34.2974 46.0109 34.4477 45.955 34.5864C45.8991 34.7252 45.8103 34.8482 45.6964 34.9451C45.4821 35.107 45.2199 35.193 44.9513 35.1892C44.7728 35.1966 44.5956 35.1566 44.4374 35.0735C44.2664 34.9588 44.1254 34.8046 44.0264 34.6239L41.637 30.77L40.4936 31.9648V34.11C40.5013 34.3975 40.4004 34.6773 40.211 34.8936C40.1095 34.9929 39.9887 35.0704 39.8562 35.1212C39.7236 35.172 39.5821 35.1952 39.4402 35.1892C39.2032 35.1942 38.9717 35.117 38.7851 34.9708C38.6036 34.8262 38.4805 34.621 38.4382 34.3928C38.4255 34.299 38.4255 34.2038 38.4382 34.11L38.5153 26.5051Z" fill="#FEE500"/>
</svg>
