<svg width="48" height="48" viewBox="0 0 48 48" fill="none" xmlns="http://www.w3.org/2000/svg">
<path d="M0.5 24C0.5 11.0213 11.0213 0.5 24 0.5C36.9787 0.5 47.5 11.0213 47.5 24C47.5 36.9787 36.9787 47.5 24 47.5C11.0213 47.5 0.5 36.9787 0.5 24Z" stroke="#DEDEDE"/>
<path d="M22.7266 26.5078H25.5156L26.9688 28.4062C27.918 27.3984 28.4922 25.8164 28.4922 23.7188C28.4922 19.8516 26.5469 17.7422 23.7812 17.7422C21.0156 17.7422 19.0703 19.8516 19.0703 23.7188C19.0703 27.5859 21.0156 29.6953 23.7812 29.6953C24.2266 29.6953 24.6484 29.6367 25.0469 29.5312L22.7266 26.5078ZM31.5625 23.7188C31.5625 26.8008 30.5078 29.168 28.8203 30.6562L31.1641 33.6797H28.1875L26.7812 31.875C25.8672 32.25 24.8594 32.4375 23.7812 32.4375C19.3281 32.4375 16 29.1797 16 23.7188C16 18.2344 19.3281 15 23.7812 15C28.2344 15 31.5625 18.2344 31.5625 23.7188Z" fill="#3B82F6"/>
</svg>
