<svg width="64" height="64" viewBox="0 0 64 64" fill="none" xmlns="http://www.w3.org/2000/svg">
<path fill-rule="evenodd" clip-rule="evenodd" d="M9.29 21.4375C8.57755 21.4375 8 22.0151 8 22.7275V54.2075C8 54.9199 8.57755 55.4975 9.29 55.4975H54.67C55.3824 55.4975 55.96 54.9199 55.96 54.2075V22.7275C55.96 22.0151 55.3824 21.4375 54.67 21.4375H9.29ZM4 22.7275C4 19.8059 6.36841 17.4375 9.29 17.4375H54.67C57.5916 17.4375 59.96 19.8059 59.96 22.7275V54.2075C59.96 57.1291 57.5916 59.4975 54.67 59.4975H9.29C6.36841 59.4975 4 57.1291 4 54.2075V22.7275Z" fill="#1C1C1C"/>
<path fill-rule="evenodd" clip-rule="evenodd" d="M23.1666 9.27682C22.9766 9.49476 22.8203 9.84591 22.8203 10.29V18.71H18.8203V10.29C18.8203 7.63182 20.747 5 23.6903 5H40.2703C43.2137 5 45.1403 7.63182 45.1403 10.29V18.71H41.1403V10.29C41.1403 9.84591 40.9841 9.49476 40.7941 9.27682C40.6082 9.0636 40.4195 9 40.2703 9H23.6903C23.5411 9 23.3525 9.0636 23.1666 9.27682Z" fill="#1C1C1C"/>
<path fill-rule="evenodd" clip-rule="evenodd" d="M29.9805 46.8894V27.8594H33.9805V46.8894H29.9805Z" fill="#3B82F6"/>
<path fill-rule="evenodd" clip-rule="evenodd" d="M41.4988 39.3672H22.4688V35.3672H41.4988V39.3672Z" fill="#3B82F6"/>
</svg>
