<svg width="64" height="64" viewBox="0 0 64 64" fill="none" xmlns="http://www.w3.org/2000/svg">
<path fill-rule="evenodd" clip-rule="evenodd" d="M23.3086 21.2812H42.9786V17.2812H23.3086V21.2812ZM23.3086 27.6484H42.9786V23.6484H23.3086V27.6484Z" fill="#3B82F6"/>
<path fill-rule="evenodd" clip-rule="evenodd" d="M10 14.15C10 10.2029 13.208 7 17.16 7H53.9V42.9688V46.98V57.9287H17.16C13.2105 57.9287 10 54.7384 10 50.7787V50.13V50.1187V14.15ZM49.9 11V42.9688H17.16C16.026 42.9688 14.9533 43.2325 14 43.7018V14.15C14 12.4171 15.412 11 17.16 11H49.9ZM17.16 46.98C15.4095 46.98 14 48.3896 14 50.13V50.7787C14 52.5191 15.4095 53.9287 17.16 53.9287H49.9V46.98H17.16ZM23.3086 30.0078V34.0078H42.9786V30.0078H33.1436H23.3086Z" fill="#1C1C1C"/>
</svg>
