<svg width="24" height="24" viewBox="0 0 24 24" fill="none" xmlns="http://www.w3.org/2000/svg">
<path fill-rule="evenodd" clip-rule="evenodd" d="M16.0005 12.75H8.00049V11.25H16.0005V12.75Z" fill="#1C1C1C"/>
<path fill-rule="evenodd" clip-rule="evenodd" d="M12.0005 20.5C16.6949 20.5 20.5005 16.6944 20.5005 12C20.5005 7.30558 16.6949 3.5 12.0005 3.5C7.30607 3.5 3.50049 7.30558 3.50049 12C3.50049 16.6944 7.30607 20.5 12.0005 20.5ZM12.0005 22C17.5233 22 22.0005 17.5228 22.0005 12C22.0005 6.47715 17.5233 2 12.0005 2C6.47764 2 2.00049 6.47715 2.00049 12C2.00049 17.5228 6.47764 22 12.0005 22Z" fill="#1C1C1C"/>
<path fill-rule="evenodd" clip-rule="evenodd" d="M12.7505 8.00025V16.0002H11.2505V8.00025H12.7505Z" fill="#1C1C1C"/>
<path fill-rule="evenodd" clip-rule="evenodd" d="M20.5005 12.0002C20.5005 7.30583 16.6949 3.50025 12.0005 3.50025C7.30607 3.50025 3.50049 7.30583 3.50049 12.0002C3.50049 16.6947 7.30607 20.5002 12.0005 20.5002C16.6949 20.5002 20.5005 16.6947 20.5005 12.0002ZM22.0005 12.0002C22.0005 6.4774 17.5233 2.00025 12.0005 2.00025C6.47764 2.00025 2.00049 6.4774 2.00049 12.0002C2.00049 17.5231 6.47764 22.0002 12.0005 22.0002C17.5233 22.0002 22.0005 17.5231 22.0005 12.0002Z" fill="#1C1C1C"/>
</svg>
