<svg width="64" height="64" viewBox="0 0 64 64" fill="none" xmlns="http://www.w3.org/2000/svg">
<path fill-rule="evenodd" clip-rule="evenodd" d="M7 12C7 8.13543 10.1354 5 14 5H50.26C54.1246 5 57.26 8.13543 57.26 12V38.29H7V12ZM14 9C12.3446 9 11 10.3446 11 12V34.29H53.26V12C53.26 10.3446 51.9154 9 50.26 9H14Z" fill="#1C1C1C"/>
<path fill-rule="evenodd" clip-rule="evenodd" d="M7 34.2891H57.26V41.4791C57.26 45.3436 54.1246 48.4791 50.26 48.4791H14C10.1354 48.4791 7 45.3436 7 41.4791V34.2891ZM11 38.2891V41.4791C11 43.1345 12.3446 44.4791 14 44.4791H50.26C51.9154 44.4791 53.26 43.1345 53.26 41.4791V38.2891H11Z" fill="#1C1C1C"/>
<path fill-rule="evenodd" clip-rule="evenodd" d="M26.9375 46.2109V57.2009H22.9375V46.2109H26.9375Z" fill="#1C1C1C"/>
<path fill-rule="evenodd" clip-rule="evenodd" d="M37.3164 57.2009V46.2109H41.3164V57.2009H37.3164Z" fill="#1C1C1C"/>
<path fill-rule="evenodd" clip-rule="evenodd" d="M50.6494 58.7891H13.6094V54.7891H50.6494V58.7891Z" fill="#1C1C1C"/>
<path fill-rule="evenodd" clip-rule="evenodd" d="M34.1753 11.7344L39.2006 19.6462H45.9216C47.0261 19.6462 47.9216 20.5417 47.9216 21.6462C47.9216 22.7508 47.0261 23.6462 45.9216 23.6462H37.0026L35.3079 20.9781L31.7678 31.5883L26.5749 23.3062H18.3516C17.247 23.3062 16.3516 22.4108 16.3516 21.3062C16.3516 20.2017 17.247 19.3062 18.3516 19.3062H28.7882L30.6553 22.2842L34.1753 11.7344Z" fill="#3B82F6"/>
</svg>
