<svg width="64" height="64" viewBox="0 0 64 64" fill="none" xmlns="http://www.w3.org/2000/svg">
<path fill-rule="evenodd" clip-rule="evenodd" d="M29.5017 14.0078C24.2563 14.0078 20.0117 18.2524 20.0117 23.4978C20.0117 28.7432 24.2563 32.9878 29.5017 32.9878C34.7471 32.9878 38.9917 28.7432 38.9917 23.4978H42.9917C42.9917 30.9524 36.9563 36.9878 29.5017 36.9878C22.0471 36.9878 16.0117 30.9524 16.0117 23.4978C16.0117 16.0432 22.0471 10.0078 29.5017 10.0078V14.0078Z" fill="#1C1C1C"/>
<path fill-rule="evenodd" clip-rule="evenodd" d="M24.9197 33.3254C25.353 34.3415 24.8805 35.5164 23.8645 35.9496C22.1267 36.6906 20.5634 37.7462 19.2589 39.0594L19.2542 39.0641C17.9448 40.3736 16.8804 41.9388 16.1414 43.6704C15.4119 45.4032 15 47.3085 15 49.3099V56.1499H44V49.3099C44 47.301 43.5951 45.3978 42.8603 43.6743L42.8569 43.6664C42.1293 41.9396 41.0677 40.3772 39.7505 39.0688C38.9669 38.2904 38.9626 37.0241 39.7411 36.2404C40.5195 35.4568 41.7858 35.4525 42.5695 36.231C44.2512 37.9015 45.6089 39.8976 46.5413 42.1091C47.4854 44.3247 48 46.7601 48 49.3099V58.1499C48 59.2545 47.1046 60.1499 46 60.1499H13C11.8954 60.1499 11 59.2545 11 58.1499V49.3099C11 46.7528 11.5274 44.3194 12.4569 42.1134L12.4602 42.1054C13.4008 39.8996 14.755 37.9071 16.4235 36.238C18.0985 34.5523 20.0944 33.2087 22.2955 32.2702C23.3116 31.8369 24.4865 32.3094 24.9197 33.3254Z" fill="#1C1C1C"/>
<path fill-rule="evenodd" clip-rule="evenodd" d="M27.3789 6C27.3789 4.89543 28.2743 4 29.3789 4H51.1789C52.2835 4 53.1789 4.89543 53.1789 6V18.96C53.1789 20.0646 52.2835 20.96 51.1789 20.96H42.2273L37.0931 26.0942C36.5211 26.6662 35.6609 26.8373 34.9135 26.5278C34.1662 26.2182 33.6789 25.4889 33.6789 24.68V20.96H29.3789C28.2743 20.96 27.3789 20.0646 27.3789 18.96V6ZM31.3789 8V16.96H35.6789C36.7835 16.96 37.6789 17.8554 37.6789 18.96V19.8516L39.9847 17.5458C40.3598 17.1707 40.8685 16.96 41.3989 16.96H49.1789V8H31.3789Z" fill="#3B82F6"/>
</svg>
