<svg width="64" height="64" viewBox="0 0 64 64" fill="none" xmlns="http://www.w3.org/2000/svg">
<path fill-rule="evenodd" clip-rule="evenodd" d="M11.77 14C11.3446 14 11 14.3446 11 14.77V42.72C11 43.1454 11.3446 43.49 11.77 43.49H52.38C52.8054 43.49 53.15 43.1454 53.15 42.72V14.78C53.15 14.3493 52.8001 14 52.37 14H11.77ZM7 14.77C7 12.1354 9.13543 10 11.77 10H52.37C54.9999 10 57.15 12.1307 57.15 14.78V42.72C57.15 45.3546 55.0146 47.49 52.38 47.49H11.77C9.13543 47.49 7 45.3546 7 42.72V14.77Z" fill="#1C1C1C"/>
<path fill-rule="evenodd" clip-rule="evenodd" d="M32.4886 19.7031L38.5996 27.7053H42.9524L42.7944 27.4987L45.9716 25.0686L51.0476 31.7053H36.6212L32.4861 26.2905L26.592 33.9968H16V29.9968H24.6155L32.4886 19.7031Z" fill="#3B82F6"/>
<path fill-rule="evenodd" clip-rule="evenodd" d="M44.0311 54.7969H20.1211V50.7969H44.0311V54.7969Z" fill="#1C1C1C"/>
</svg>
