<svg width="64" height="64" viewBox="0 0 64 64" fill="none" xmlns="http://www.w3.org/2000/svg">
<path fill-rule="evenodd" clip-rule="evenodd" d="M26.5082 17.5492C26.4936 14.5329 24.0325 12.0948 21.0179 12.1094C18.0016 12.1241 15.5636 14.5852 15.5782 17.5998C15.5928 20.6161 18.0539 23.0541 21.0685 23.0395C24.0848 23.0248 26.5229 20.5638 26.5082 17.5492ZM20.9985 8.10949C26.2239 8.08412 30.4828 12.3061 30.5082 17.5298C30.5336 22.7552 26.3116 27.0141 21.0879 27.0394C15.8625 27.0648 11.6036 22.8429 11.5782 17.6192C11.5529 12.3938 15.7748 8.13485 20.9985 8.10949Z" fill="#3B82F6"/>
<path fill-rule="evenodd" clip-rule="evenodd" d="M47.6003 17.4398C47.5856 14.4235 45.1245 11.9854 42.11 12.0001C39.0937 12.0147 36.6556 14.4758 36.6702 17.4904C36.6849 20.5067 39.146 22.9447 42.1605 22.9301C45.1769 22.9155 47.6149 20.4544 47.6003 17.4398ZM42.0905 8.00011C47.316 7.97475 51.5749 12.1967 51.6002 17.4204C51.6256 22.6458 47.4037 26.9047 42.18 26.9301C36.9545 26.9554 32.6956 22.7335 32.6703 17.5098C32.6449 12.2844 36.8669 8.02547 42.0905 8.00011Z" fill="#1C1C1C"/>
<path fill-rule="evenodd" clip-rule="evenodd" d="M55.3311 35.9297C58.4853 40.6087 60.4532 46.6607 60.4802 52.2504L60.4803 52.2601C60.4803 52.9229 60.4589 53.5886 60.4036 54.2635L60.2537 56.0914L35.1458 56.2104L35.3272 54.034C35.3714 53.5034 35.3901 52.9423 35.3903 52.3654C35.3757 49.7399 34.8485 46.2408 33.9002 42.9873C32.9299 39.6587 31.6228 36.9515 30.2663 35.6145L28.8341 34.2029L30.2535 32.7784C33.4022 29.6186 37.5626 27.643 42.1803 27.6201C47.6157 27.5958 52.21 31.2996 55.3311 35.9297ZM39.3889 52.1903C39.3533 49.1616 38.7584 45.3607 37.7404 41.8679C36.9575 39.1822 35.8634 36.4629 34.4338 34.4039C36.6815 32.6401 39.3503 31.6344 42.1992 31.6201M39.3889 52.1903L56.4789 52.1092C56.4189 47.4006 54.7244 42.1858 52.0144 38.1655C49.2407 34.0509 45.7135 31.6048 42.1992 31.6201" fill="#1C1C1C"/>
<path fill-rule="evenodd" clip-rule="evenodd" d="M21.0913 27.7301C25.7071 27.7075 29.8895 29.6369 33.0719 32.7634L33.6703 33.3513V33.417C35.4806 35.5374 36.8241 38.7296 37.7404 41.8744C38.7764 45.4299 39.3741 49.3057 39.3902 52.3595L39.3903 52.3701C39.3903 53.0329 39.3689 53.6986 39.3136 54.3735L39.1638 56.201L3.28118 56.3791L3.10018 54.5691C3.03344 53.9017 3.00041 53.2168 3.00026 52.5349C2.97435 46.9442 4.89478 40.8725 8.0112 36.1638C11.0952 31.504 15.6607 27.7549 21.0913 27.7301ZM29.9327 35.2967C27.4696 33.0206 24.4026 31.7137 21.1102 31.7301C17.6012 31.7458 14.0901 34.2264 11.3468 38.3714C8.66701 42.4204 7.0146 47.6537 7.0001 52.3606L35.3888 52.2197C35.3548 49.6123 34.8298 46.1842 33.9001 42.9933C32.9296 39.6626 31.6228 36.9575 30.2684 35.6266L29.9327 35.2967Z" fill="#1C1C1C"/>
</svg>
