<svg width="58" height="48" viewBox="0 0 58 48" fill="none" xmlns="http://www.w3.org/2000/svg">
<g clip-path="url(#clip0_2_374)">
<path d="M32.5762 23.7894C32.9657 25.1347 32.3069 26.6833 31.2057 27.5871C29.4275 29.047 26.9506 29.408 25.114 28.049C23.2529 26.6722 22.0602 24.4858 21.5332 22.2477C20.839 19.3014 21.1353 16.2129 21.4476 13.1928C23.2085 16.3551 25.876 18.9934 29.0479 20.7104C30.376 21.4293 31.9094 22.112 32.4819 23.5172C32.5183 23.6065 32.5497 23.6972 32.576 23.7889L32.5762 23.7894Z" fill="#4DAAF9"/>
<path d="M42.9828 26.0112C43.0852 26.1453 45.5561 29.4145 45.5561 29.4145L41.7864 28.2211L42.9829 26.0117L42.9828 26.0112Z" fill="#221E1F"/>
<path d="M43.208 22.264C42.8801 20.2693 41.9295 18.4155 40.3519 17.1801C37.3854 14.857 33.0877 15.1725 29.5483 16.5219C26.0089 17.8713 22.8461 20.1043 19.3005 21.4364C15.8805 22.7212 11.459 23.0921 8.5259 20.6818C9.11357 21.265 9.38333 22.3858 9.71694 23.1431C12.651 29.806 18.3383 36.1278 25.9893 36.8603C32.5155 37.4852 40.3715 33.7016 42.7493 27.2218C43.3249 25.6528 43.4788 23.9104 43.2082 22.2637L43.208 22.264Z" fill="#CDE6FB"/>
<path d="M28.2613 24.0643C28.6507 25.4096 27.992 26.9582 26.8908 27.862C25.1126 29.3219 22.6356 29.6829 20.7991 28.3239C18.9381 26.9468 17.7452 24.7607 17.2183 22.5226C16.5241 19.5763 16.8203 16.4878 17.1327 13.4677C18.8936 16.63 21.5611 19.2683 24.733 20.9853C26.061 21.7042 27.5945 22.3869 28.1668 23.7925C28.2032 23.8817 28.2346 23.9724 28.261 24.0641L28.2613 24.0643Z" fill="#4DAAF9"/>
<path d="M39.1633 26.6147C38.5277 26.3066 38.2649 25.5359 38.5764 24.8933C38.8879 24.2507 39.6558 23.9796 40.2914 24.2877C40.9271 24.5959 41.1899 25.3666 40.8783 26.0092C40.5668 26.6518 39.799 26.9229 39.1633 26.6147Z" fill="#221E1F"/>
<path d="M10.168 21.7846C10.168 21.7846 10.7039 18.494 8.18386 18.2304C8.18386 18.2304 7.50933 18.2414 7.69617 19.1213C7.69617 19.1213 6.55784 18.7667 6.62343 19.9538C6.62343 19.9538 5.33116 20.0318 5.60657 20.7289C5.88197 21.4261 9.6001 22.4957 9.6001 22.4957L9.69937 22.2338L9.78972 22.2776L9.78748 21.9949L10.0241 22.0816L10.0333 21.8324L10.1679 21.7849L10.168 21.7846Z" fill="#4DAAF9"/>
</g>
<rect width="7.81553" height="10.4207" rx="0.868392" transform="matrix(-0.849587 -0.527449 -0.527449 0.849587 54 32.4375)" fill="#CDE6FB"/>
<rect width="3.47357" height="1.73679" rx="0.217098" transform="matrix(-0.849587 -0.527449 -0.527449 0.849587 51.52 32.3755)" fill="#49ADFF"/>
<path d="M53.1548 32.6235L48.3454 40.3702" stroke="#49ADFF" stroke-width="0.108549"/>
<defs>
<clipPath id="clip0_2_374">
<rect width="39.8887" height="25.1151" fill="white" transform="matrix(-0.899838 -0.436225 -0.436225 0.899838 49.4409 21.4004)"/>
</clipPath>
</defs>
</svg>
