<svg width="200" height="22" viewBox="0 0 200 22" fill="none" xmlns="http://www.w3.org/2000/svg">
<path d="M156.563 1.22656C159.293 1.20312 161.461 2.76172 162.047 5.04688H165.61V0.3125H168.586V11.7734H165.61V7.4375H162.07C161.508 9.78125 159.317 11.375 156.563 11.375C153.281 11.375 150.867 9.24219 150.891 6.26562C150.867 3.33594 153.281 1.20312 156.563 1.22656ZM156.563 3.71094C154.899 3.6875 153.703 4.67188 153.727 6.26562C153.703 7.85938 154.899 8.86719 156.563 8.86719C158.18 8.86719 159.352 7.85938 159.352 6.26562C159.352 4.67188 158.18 3.6875 156.563 3.71094ZM157.313 12.7109V14.7734H165.61V12.7109H168.586V21.4062H154.36V12.7109H157.313ZM157.313 18.9922H165.61V17.0703H157.313V18.9922Z" fill="black"/>
<path d="M137.719 5.14062C137.695 8.96094 139.336 12.8281 142.758 14.4688L140.953 16.8594C138.668 15.7344 137.133 13.625 136.242 11.0469C135.317 13.8125 133.664 16.0742 131.25 17.2578L129.399 14.8438C133.008 13.1797 134.719 9.10156 134.719 5.14062V1.95312H137.719V5.14062ZM146.695 0.3125V8.53906H149.836V11.0703H146.695V21.6406H143.695V0.3125H146.695Z" fill="black"/>
<path d="M120 2.07031V12.3125H109.758V2.07031H120ZM112.711 4.46094V9.96875H117.047V4.46094H112.711ZM126.047 0.3125V6.45312H128.93V8.91406H126.047V15.875H123.047V0.3125H126.047ZM126.82 18.875V21.2656H112.219V14.3516H115.195V18.875H126.82Z" fill="black"/>
<path d="M94.4533 0.945312C97.6877 0.945312 100.149 2.96094 100.149 5.82031C100.149 8.63281 97.6877 10.6719 94.4533 10.6719C91.1486 10.6719 88.7111 8.63281 88.7111 5.82031C88.7111 2.96094 91.1486 0.945312 94.4533 0.945312ZM94.4533 3.38281C92.8127 3.38281 91.5939 4.27344 91.6174 5.82031C91.5939 7.34375 92.8127 8.25781 94.4533 8.25781C96.0705 8.25781 97.2658 7.34375 97.2658 5.82031C97.2658 4.27344 96.0705 3.38281 94.4533 3.38281ZM106.242 0.3125V11H103.242V0.3125H106.242ZM106.242 11.8906V17.6797H94.8986V19.0625H106.828V21.4062H91.9689V15.5H103.266V14.1875H91.922V11.8906H106.242Z" fill="black"/>
<path d="M79.9689 0.335938V15.6641H76.9689V0.335938H79.9689ZM80.5314 18.875V21.2656H65.672V14.1172H68.6955V18.875H80.5314ZM68.2736 1.69531C71.5549 1.69531 74.1095 3.94531 74.1095 7.0625C74.1095 10.25 71.5549 12.4766 68.2736 12.4766C64.9924 12.4766 62.4377 10.25 62.4377 7.0625C62.4377 3.94531 64.9924 1.69531 68.2736 1.69531ZM68.2736 4.29688C66.6095 4.27344 65.3439 5.32812 65.3674 7.0625C65.3439 8.84375 66.6095 9.875 68.2736 9.875C69.8908 9.875 71.1564 8.84375 71.1564 7.0625C71.1564 5.32812 69.8908 4.27344 68.2736 4.29688Z" fill="black"/>
<path d="M53.5314 2.28125V4.67188H51.633V13.9766C52.5002 13.9062 53.3439 13.8242 54.1642 13.7188L54.3283 15.875C49.9689 16.6484 45.0705 16.7188 41.4142 16.7422L41.0861 14.3047C41.8478 14.3047 42.6681 14.293 43.5236 14.2812V4.67188H41.6252V2.28125H53.5314ZM58.1955 0.3125V8.42188H61.3361V10.8594H58.1955V21.6406H55.1955V0.3125H58.1955ZM46.4064 14.2344C47.1799 14.2109 47.965 14.1875 48.7502 14.1406V4.67188H46.4064V14.2344Z" fill="black"/>
<path d="M38.4845 0.335938V12.3828H35.4845V0.335938H38.4845ZM38.4845 13.3438V21.4062H24.1877V13.3438H38.4845ZM27.1408 15.7109V19.0156H35.5549V15.7109H27.1408ZM26.7892 1.29688C30.1174 1.29688 32.6252 3.40625 32.6252 6.45312C32.6252 9.38281 30.1174 11.5391 26.7892 11.5391C23.4611 11.5391 20.9533 9.38281 20.9533 6.45312C20.9533 3.40625 23.4611 1.29688 26.7892 1.29688ZM26.7892 3.80469C25.0783 3.80469 23.8595 4.78906 23.883 6.45312C23.8595 8.04688 25.0783 9.03125 26.7892 9.03125C28.4533 9.03125 29.672 8.04688 29.672 6.45312C29.672 4.78906 28.4533 3.80469 26.7892 3.80469Z" fill="black"/>
<path d="M5.62517 1.8125C8.88298 1.8125 11.2267 4.76562 11.2502 9.40625C11.2267 14.0938 8.88298 17.0234 5.62517 17.0234C2.36736 17.0234 -0.0232667 14.0938 0.000170839 9.40625C-0.0232667 4.76562 2.36736 1.8125 5.62517 1.8125ZM5.62517 4.50781C3.98455 4.50781 2.88298 6.24219 2.88298 9.40625C2.88298 12.5938 3.98455 14.3047 5.62517 14.3047C7.28923 14.3047 8.36736 12.5938 8.3908 9.40625C8.36736 6.24219 7.28923 4.50781 5.62517 4.50781ZM16.7111 0.3125V8.35156H19.8517V10.8359H16.7111V21.6406H13.7111V0.3125H16.7111Z" fill="black"/>
</svg>
